<svg width="56" height="56" viewBox="0 0 56 56" fill="none" xmlns="http://www.w3.org/2000/svg">
<path fill-rule="evenodd" clip-rule="evenodd" d="M51.8638 27.9858C52.6936 28.8156 52.6936 30.1611 51.8638 30.991L50.0641 32.7907C49.2342 33.6205 47.8887 33.6205 47.0589 32.7907C46.229 31.9608 46.229 30.6153 47.0589 29.7855L48.8586 27.9858C49.6884 27.1559 51.0339 27.1559 51.8638 27.9858Z" fill="#16192C"/>
<path fill-rule="evenodd" clip-rule="evenodd" d="M32.7907 47.0589C33.6205 47.8887 33.6205 49.2342 32.7907 50.0641L30.991 51.8638C30.1611 52.6936 28.8156 52.6936 27.9858 51.8638C27.1559 51.0339 27.1559 49.6884 27.9858 48.8586L29.7855 47.0589C30.6153 46.229 31.9608 46.229 32.7907 47.0589Z" fill="#16192C"/>
<path fill-rule="evenodd" clip-rule="evenodd" d="M39.9248 23.0405C41.0984 23.0405 42.0498 23.9919 42.0498 25.1655V27.7106C42.0498 28.8842 41.0984 29.8356 39.9248 29.8356C38.7512 29.8356 37.7998 28.8842 37.7998 27.7106V25.1655C37.7998 23.9919 38.7512 23.0405 39.9248 23.0405Z" fill="#16192C"/>
<path fill-rule="evenodd" clip-rule="evenodd" d="M27.9858 27.9858C28.8156 27.1559 30.1611 27.1559 30.991 27.9858L32.7907 29.7855C33.6205 30.6153 33.6205 31.9608 32.7907 32.7907C31.9608 33.6205 30.6153 33.6205 29.7855 32.7907L27.9858 30.991C27.1559 30.1611 27.1559 28.8156 27.9858 27.9858Z" fill="#16192C"/>
<path fill-rule="evenodd" clip-rule="evenodd" d="M23.0405 39.9248C23.0405 38.7512 23.9919 37.7998 25.1655 37.7998H27.7106C28.8842 37.7998 29.8356 38.7512 29.8356 39.9248C29.8356 41.0984 28.8842 42.0498 27.7106 42.0498H25.1655C23.9919 42.0498 23.0405 41.0984 23.0405 39.9248Z" fill="#16192C"/>
<path fill-rule="evenodd" clip-rule="evenodd" d="M36.7228 36.7227C37.7119 35.7336 39.1751 35.3882 40.5021 35.8306L53.1101 40.0332C54.4783 40.4893 55.4559 41.7001 55.6133 43.1338C55.7707 44.5674 55.0791 45.9615 53.8424 46.7036L49.5976 49.2506C49.4552 49.3359 49.3361 49.4551 49.2507 49.5974L46.7038 53.8422C45.9617 55.079 44.5676 55.7706 43.1339 55.6133C41.7003 55.4559 40.4894 54.4783 40.0333 53.11L35.8306 40.5021C35.3883 39.175 35.7336 37.7119 36.7228 36.7227ZM40.2147 40.2146L50.6175 43.6823L47.411 45.6062C46.6705 46.0505 46.0506 46.6703 45.6063 47.4108L43.6823 50.6175L40.2147 40.2146Z" fill="#16192C"/>
<path fill-rule="evenodd" clip-rule="evenodd" d="M46.3975 46.3975C47.2274 45.5676 48.5728 45.5676 49.4027 46.3975L54.2083 51.2031C55.0382 52.0329 55.0382 53.3784 54.2083 54.2083C53.3784 55.0382 52.0329 55.0382 51.2031 54.2083L46.3975 49.4027C45.5676 48.5728 45.5676 47.2274 46.3975 46.3975Z" fill="#16192C"/>
<path fill-rule="evenodd" clip-rule="evenodd" d="M0.36438 13.8274C0.36438 12.6538 1.31577 11.7024 2.48938 11.7024H53.5106C54.6842 11.7024 55.6356 12.6538 55.6356 13.8274C55.6356 15.001 54.6842 15.9524 53.5106 15.9524H2.48938C1.31577 15.9524 0.36438 15.001 0.36438 13.8274Z" fill="#16192C"/>
<path fill-rule="evenodd" clip-rule="evenodd" d="M10.9929 4.61438C7.47015 4.61438 4.61438 7.47015 4.61438 10.9929V33.669C4.61438 37.1918 7.47015 40.0476 10.9929 40.0476H13.8274C15.001 40.0476 15.9524 40.999 15.9524 42.1726C15.9524 43.3462 15.001 44.2976 13.8274 44.2976H10.9929C5.12294 44.2976 0.36438 39.539 0.36438 33.669V10.9929C0.36438 5.12294 5.12294 0.36438 10.9929 0.36438H45.0071C50.8771 0.36438 55.6356 5.12294 55.6356 10.9929V19.4965C55.6356 20.6701 54.6842 21.6215 53.5106 21.6215C52.337 21.6215 51.3856 20.6701 51.3856 19.4965V10.9929C51.3856 7.47015 48.5299 4.61438 45.0071 4.61438H10.9929Z" fill="#16192C"/>
</svg>
