<svg width="62" height="62" viewBox="0 0 62 62" fill="none" xmlns="http://www.w3.org/2000/svg">
<path fill-rule="evenodd" clip-rule="evenodd" d="M27.4583 5.49996C27.4583 5.10956 27.7763 4.79163 28.1667 4.79163H33.8333C34.2237 4.79163 34.5417 5.10956 34.5417 5.49996V11.1666C34.5417 11.557 34.2237 11.875 33.8333 11.875H28.1667C27.7763 11.875 27.4583 11.557 27.4583 11.1666V5.49996ZM28.1667 0.541626C25.4291 0.541626 23.2083 2.76235 23.2083 5.49996V6.20829H14C9.69555 6.20829 6.20832 9.69552 6.20832 14V23.2083L5.49999 23.2083C2.76238 23.2083 0.541656 25.429 0.541656 28.1666V33.8333C0.541656 36.5709 2.76238 38.7916 5.49999 38.7916H6.20832V48C6.20832 52.3044 9.69555 55.7916 14 55.7916H23.2083V56.5C23.2083 59.2376 25.4291 61.4583 28.1667 61.4583H33.8333C36.5709 61.4583 38.7917 59.2376 38.7917 56.5V55.7916H48C52.3044 55.7916 55.7917 52.3044 55.7917 48V38.7916H56.5C59.2376 38.7916 61.4583 36.5709 61.4583 33.8333V28.1666C61.4583 25.429 59.2376 23.2083 56.5 23.2083H55.7917V14C55.7917 9.69552 52.3044 6.20829 48 6.20829H38.7917V5.49996C38.7917 2.76235 36.5709 0.541626 33.8333 0.541626H28.1667ZM10.4583 48C10.4583 49.9572 12.0428 51.5416 14 51.5416H23.2083V50.8333C23.2083 48.0957 25.4291 45.875 28.1667 45.875H33.8333C36.5709 45.875 38.7917 48.0957 38.7917 50.8333V51.5416H48C49.9572 51.5416 51.5417 49.9572 51.5417 48V38.7916H50.8333C48.0957 38.7916 45.875 36.5709 45.875 33.8333V28.1666C45.875 25.429 48.0957 23.2083 50.8333 23.2083H51.5417V14C51.5417 12.0427 49.9572 10.4583 48 10.4583H38.7917V11.1666C38.7917 13.9042 36.5709 16.125 33.8333 16.125H28.1667C25.4291 16.125 23.2083 13.9042 23.2083 11.1666V10.4583H14C12.0428 10.4583 10.4583 12.0427 10.4583 14V23.2083L11.1667 23.2083C13.9043 23.2083 16.125 25.429 16.125 28.1666V33.8333C16.125 36.5709 13.9043 38.7916 11.1667 38.7916H10.4583V48ZM27.4583 50.8333C27.4583 50.4429 27.7763 50.125 28.1667 50.125H33.8333C34.2237 50.125 34.5417 50.4429 34.5417 50.8333V56.5C34.5417 56.8904 34.2237 57.2083 33.8333 57.2083H28.1667C27.7763 57.2083 27.4583 56.8904 27.4583 56.5V50.8333ZM5.49999 27.4583C5.10959 27.4583 4.79166 27.7762 4.79166 28.1666V33.8333C4.79166 34.2237 5.10959 34.5416 5.49999 34.5416H11.1667C11.5571 34.5416 11.875 34.2237 11.875 33.8333V28.1666C11.875 27.7762 11.5571 27.4583 11.1667 27.4583H5.49999ZM50.125 28.1666C50.125 27.7762 50.4429 27.4583 50.8333 27.4583H56.5C56.8904 27.4583 57.2083 27.7762 57.2083 28.1666V33.8333C57.2083 34.2237 56.8904 34.5416 56.5 34.5416H50.8333C50.4429 34.5416 50.125 34.2237 50.125 33.8333V28.1666ZM33.6917 30.9999C33.6917 32.347 32.6035 33.4819 31.2125 33.4819C29.8434 33.4819 28.7333 32.3719 28.7333 31.0028C28.7333 28.9874 30.3878 28.5353 31.1817 28.5238C32.5807 28.5035 33.6917 29.6369 33.6917 30.9999Z" fill="#16192C"/>
</svg>
