<svg width="48" height="49" viewBox="0 0 48 49" fill="none" xmlns="http://www.w3.org/2000/svg">
<path fill-rule="evenodd" clip-rule="evenodd" d="M32.2716 41.6079C32.8398 42.2106 32.8398 43.188 32.2716 43.7907C31.7032 44.3934 30.7818 44.3934 30.2136 43.7907L25.9708 39.2907C25.4026 38.688 25.4026 37.7106 25.9708 37.1079L30.2136 32.6079C30.7818 32.005 31.7032 32.005 32.2714 32.6079C32.8398 33.2106 32.8398 34.188 32.2716 34.7907L29.0578 38.1993L32.2716 41.6079ZM36.2136 34.7907C35.6452 34.188 35.6452 33.2107 36.2136 32.6079C36.7818 32.0052 37.7032 32.0052 38.2716 32.6079L42.5142 37.1079C43.0824 37.7107 43.0824 38.688 42.5142 39.2907L38.2716 43.7907C37.7032 44.3935 36.7818 44.3935 36.2136 43.7907C35.6452 43.188 35.6452 42.2106 36.2136 41.6079L39.4272 38.1993L36.2136 34.7907Z" fill="#141513"/>
<path fill-rule="evenodd" clip-rule="evenodd" d="M10.5 9.69922C10.5 7.21393 12.5147 5.19922 15 5.19922H33C35.4853 5.19922 37.5 7.21394 37.5 9.69922V27.6992C37.5 28.5277 36.8284 29.1992 36 29.1992H29.7426C29.3448 29.1992 28.9634 29.3573 28.6819 29.6386L22.0896 36.2309C21.6332 36.6875 21.5199 37.3849 21.8086 37.9624L23.8416 42.0284C24.0741 42.4934 24.0494 43.0456 23.7761 43.4878C23.5026 43.93 23.0199 44.1992 22.5 44.1992H15C12.5147 44.1992 10.5 42.1846 10.5 39.6992V9.69922ZM19.5 8.19922C18.6715 8.19922 18 8.8708 18 9.69922C18 10.5276 18.6715 11.1992 19.5 11.1992H28.5C29.3284 11.1992 30 10.5276 30 9.69922C30 8.8708 29.3284 8.19922 28.5 8.19922H19.5Z" fill="url(#paint0_linear_228_1608)"/>
<defs>
<linearGradient id="paint0_linear_228_1608" x1="29.8642" y1="13.9886" x2="11.1471" y2="30.6898" gradientUnits="userSpaceOnUse">
<stop stop-color="#9DE8EE"/>
<stop offset="0.0001" stop-color="#9DE8EE"/>
<stop offset="0.490049" stop-color="#FA7C0B"/>
<stop offset="1" stop-color="#9F8CED"/>
</linearGradient>
</defs>
</svg>
