<svg width="48" height="49" viewBox="0 0 48 49" fill="none" xmlns="http://www.w3.org/2000/svg">
<path fill-rule="evenodd" clip-rule="evenodd" d="M10.5 6.69922C8.51088 6.69922 6.60322 7.4894 5.1967 8.89592C3.79018 10.3024 3 12.2101 3 14.1992V35.1992C3 37.1883 3.79018 39.096 5.1967 40.5025C6.60322 41.909 8.51088 42.6992 10.5 42.6992H24C24.3978 42.6992 24.7794 42.5412 25.0607 42.2599C25.342 41.9786 25.5 41.597 25.5 41.1992C25.5 40.8014 25.342 40.4199 25.0607 40.1386C24.7794 39.8573 24.3978 39.6992 24 39.6992H10.5C9.30653 39.6992 8.16193 39.2251 7.31802 38.3812C6.47411 37.5373 6 36.3927 6 35.1992V18.6992H42V26.1992C42 26.597 42.158 26.9786 42.4393 27.2599C42.7206 27.5412 43.1022 27.6992 43.5 27.6992C43.8978 27.6992 44.2794 27.5412 44.5607 27.2599C44.842 26.9786 45 26.597 45 26.1992V14.1992C45 12.2101 44.2098 10.3024 42.8033 8.89592C41.3968 7.4894 39.4891 6.69922 37.5 6.69922H10.5ZM10.5 14.1992C10.8978 14.1992 11.2794 14.0412 11.5607 13.7599C11.842 13.4786 12 13.097 12 12.6992C12 12.3014 11.842 11.9199 11.5607 11.6386C11.2794 11.3573 10.8978 11.1992 10.5 11.1992C10.1022 11.1992 9.72064 11.3573 9.43934 11.6386C9.15804 11.9199 9 12.3014 9 12.6992C9 13.097 9.15804 13.4786 9.43934 13.7599C9.72064 14.0412 10.1022 14.1992 10.5 14.1992ZM15 14.1992C15.3978 14.1992 15.7794 14.0412 16.0607 13.7599C16.342 13.4786 16.5 13.097 16.5 12.6992C16.5 12.3014 16.342 11.9199 16.0607 11.6386C15.7794 11.3573 15.3978 11.1992 15 11.1992C14.6022 11.1992 14.2206 11.3573 13.9393 11.6386C13.658 11.9199 13.5 12.3014 13.5 12.6992C13.5 13.097 13.658 13.4786 13.9393 13.7599C14.2206 14.0412 14.6022 14.1992 15 14.1992ZM21 12.6992C21 13.097 20.842 13.4786 20.5607 13.7599C20.2794 14.0412 19.8978 14.1992 19.5 14.1992C19.1022 14.1992 18.7206 14.0412 18.4393 13.7599C18.158 13.4786 18 13.097 18 12.6992C18 12.3014 18.158 11.9199 18.4393 11.6386C18.7206 11.3573 19.1022 11.1992 19.5 11.1992C19.8978 11.1992 20.2794 11.3573 20.5607 11.6386C20.842 11.9199 21 12.3014 21 12.6992Z" fill="url(#paint0_linear_228_1600)"/>
<path fill-rule="evenodd" clip-rule="evenodd" d="M37.4999 30.6992C37.1021 30.6992 36.7205 30.8573 36.4392 31.1386C36.1579 31.4199 35.9999 31.8014 35.9999 32.1992C35.9999 32.597 36.1579 32.9786 36.4392 33.2599C36.7205 33.5412 37.1021 33.6992 37.4999 33.6992H40.3799L36.9824 37.9442L33.4739 36.7757C33.2096 36.6878 32.9261 36.6752 32.6551 36.7393C32.3841 36.8034 32.1362 36.9417 31.9394 37.1387L28.9394 40.1387C28.6661 40.4216 28.5149 40.8005 28.5184 41.1938C28.5218 41.5871 28.6795 41.9633 28.9577 42.2414C29.2358 42.5196 29.612 42.6773 30.0053 42.6807C30.3986 42.6841 30.7775 42.533 31.0604 42.2597L33.4049 39.9152L37.0259 41.1227C37.3169 41.2197 37.6307 41.2251 37.925 41.1382C38.2192 41.0513 38.4797 40.8763 38.6714 40.6367L41.9999 36.4292V38.1992C41.9999 38.597 42.1579 38.9786 42.4392 39.2599C42.7205 39.5412 43.1021 39.6992 43.4999 39.6992C43.8977 39.6992 44.2792 39.5412 44.5605 39.2599C44.8418 38.9786 44.9999 38.597 44.9999 38.1992V32.1992C44.9999 31.8014 44.8418 31.4199 44.5605 31.1386C44.2792 30.8573 43.8977 30.6992 43.4999 30.6992H37.4999Z" fill="#141513"/>
<defs>
<linearGradient id="paint0_linear_228_1600" x1="33.122" y1="14.8125" x2="17.0853" y2="38.9267" gradientUnits="userSpaceOnUse">
<stop stop-color="#9DE8EE"/>
<stop offset="0.0001" stop-color="#9DE8EE"/>
<stop offset="0.490049" stop-color="#FA7C0B"/>
<stop offset="1" stop-color="#9F8CED"/>
</linearGradient>
</defs>
</svg>
