<svg width="48" height="49" viewBox="0 0 48 49" fill="none" xmlns="http://www.w3.org/2000/svg">
<path fill-rule="evenodd" clip-rule="evenodd" d="M10.5 6.69922C8.51088 6.69922 6.60322 7.4894 5.1967 8.89592C3.79018 10.3024 3 12.2101 3 14.1992V35.1992C3 37.1883 3.79018 39.096 5.1967 40.5025C6.60322 41.909 8.51088 42.6992 10.5 42.6992H24C24.3978 42.6992 24.7794 42.5412 25.0607 42.2599C25.342 41.9786 25.5 41.597 25.5 41.1992C25.5 40.8014 25.342 40.4199 25.0607 40.1386C24.7794 39.8573 24.3978 39.6992 24 39.6992H10.5C9.30653 39.6992 8.16193 39.2251 7.31802 38.3812C6.47411 37.5373 6 36.3927 6 35.1992V18.6992H42V26.1992C42 26.597 42.158 26.9786 42.4393 27.2599C42.7206 27.5412 43.1022 27.6992 43.5 27.6992C43.8978 27.6992 44.2794 27.5412 44.5607 27.2599C44.842 26.9786 45 26.597 45 26.1992V14.1992C45 12.2101 44.2098 10.3024 42.8033 8.89592C41.3968 7.4894 39.4891 6.69922 37.5 6.69922H10.5ZM10.5 14.1992C10.8978 14.1992 11.2794 14.0412 11.5607 13.7599C11.842 13.4786 12 13.097 12 12.6992C12 12.3014 11.842 11.9199 11.5607 11.6386C11.2794 11.3573 10.8978 11.1992 10.5 11.1992C10.1022 11.1992 9.72064 11.3573 9.43934 11.6386C9.15804 11.9199 9 12.3014 9 12.6992C9 13.097 9.15804 13.4786 9.43934 13.7599C9.72064 14.0412 10.1022 14.1992 10.5 14.1992ZM15 14.1992C15.3978 14.1992 15.7794 14.0412 16.0607 13.7599C16.342 13.4786 16.5 13.097 16.5 12.6992C16.5 12.3014 16.342 11.9199 16.0607 11.6386C15.7794 11.3573 15.3978 11.1992 15 11.1992C14.6022 11.1992 14.2206 11.3573 13.9393 11.6386C13.658 11.9199 13.5 12.3014 13.5 12.6992C13.5 13.097 13.658 13.4786 13.9393 13.7599C14.2206 14.0412 14.6022 14.1992 15 14.1992ZM21 12.6992C21 13.097 20.842 13.4786 20.5607 13.7599C20.2794 14.0412 19.8978 14.1992 19.5 14.1992C19.1022 14.1992 18.7206 14.0412 18.4393 13.7599C18.158 13.4786 18 13.097 18 12.6992C18 12.3014 18.158 11.9199 18.4393 11.6386C18.7206 11.3573 19.1022 11.1992 19.5 11.1992C19.8978 11.1992 20.2794 11.3573 20.5607 11.6386C20.842 11.9199 21 12.3014 21 12.6992Z" fill="url(#paint0_linear_228_1614)"/>
<path fill-rule="evenodd" clip-rule="evenodd" d="M36.408 31.5437C33.0135 30.5732 29.874 33.7127 30.8445 37.1072L32.2035 41.8622C33.1455 45.1607 37.2855 46.2332 39.711 43.8077L39.9105 43.6097L41.742 45.4412C42.0233 45.7227 42.4048 45.8809 42.8027 45.881C43.2006 45.8812 43.5823 45.7232 43.8638 45.442C44.1452 45.1607 44.3034 44.7792 44.3036 44.3812C44.3037 43.9833 44.1458 43.6017 43.8645 43.3202L42.0315 41.4872L43.1085 40.4117C45.534 37.9847 44.4615 33.8447 41.1615 32.9027L36.4065 31.5437H36.408ZM36 23.1992C36 22.8014 35.842 22.4199 35.5607 22.1386C35.2794 21.8573 34.8978 21.6992 34.5 21.6992C34.1022 21.6992 33.7206 21.8573 33.4393 22.1386C33.158 22.4199 33 22.8014 33 23.1992V26.1992C33 26.597 33.158 26.9786 33.4393 27.2599C33.7206 27.5412 34.1022 27.6992 34.5 27.6992C34.8978 27.6992 35.2794 27.5412 35.5607 27.2599C35.842 26.9786 36 26.597 36 26.1992V23.1992ZM23.5605 23.6387C23.8418 23.3575 24.2233 23.1995 24.621 23.1995C25.0187 23.1995 25.4002 23.3575 25.6815 23.6387L27.804 25.7597C28.0853 26.0412 28.2432 26.4228 28.2431 26.8208C28.2429 27.2187 28.0847 27.6002 27.8032 27.8815C27.5218 28.1627 27.1401 28.3207 26.7422 28.3205C26.3443 28.3204 25.9628 28.1622 25.6815 27.8807L23.5605 25.7597C23.2793 25.4784 23.1213 25.097 23.1213 24.6992C23.1213 24.3015 23.2793 23.92 23.5605 23.6387ZM19.5 33.6992C19.5 33.3014 19.658 32.9199 19.9393 32.6386C20.2206 32.3573 20.6022 32.1992 21 32.1992H24C24.3978 32.1992 24.7794 32.3573 25.0607 32.6386C25.342 32.9199 25.5 33.3014 25.5 33.6992C25.5 34.097 25.342 34.4786 25.0607 34.7599C24.7794 35.0412 24.3978 35.1992 24 35.1992H21C20.6022 35.1992 20.2206 35.0412 19.9393 34.7599C19.658 34.4786 19.5 34.097 19.5 33.6992Z" fill="#141513"/>
<defs>
<linearGradient id="paint0_linear_228_1614" x1="33.122" y1="14.8125" x2="17.0853" y2="38.9267" gradientUnits="userSpaceOnUse">
<stop stop-color="#9DE8EE"/>
<stop offset="0.0001" stop-color="#9DE8EE"/>
<stop offset="0.490049" stop-color="#FA7C0B"/>
<stop offset="1" stop-color="#9F8CED"/>
</linearGradient>
</defs>
</svg>
