<svg width="48" height="49" viewBox="0 0 48 49" fill="none" xmlns="http://www.w3.org/2000/svg">
<mask id="mask0_228_1591" style="mask-type:luminance" maskUnits="userSpaceOnUse" x="0" y="0" width="48" height="49">
<path d="M48 0.699219H0V48.6992H48V0.699219Z" fill="white"/>
</mask>
<g mask="url(#mask0_228_1591)">
<path fill-rule="evenodd" clip-rule="evenodd" d="M3 21.6992C3 17.5571 3 20.9492 3 18.6992H45C45 22.4492 45 17.5571 45 21.6992V23.1992C45 25.6846 42.9854 27.6992 40.5 27.6992H32.4854C31.2918 27.6992 30.1472 28.1734 29.3032 29.0173L25.1186 33.202C23.7489 34.5716 23.4095 36.664 24.2757 38.3965L25.3416 40.5284C25.5741 40.9934 25.5493 41.5456 25.2759 41.9878C25.0026 42.43 24.5199 42.6992 24 42.6992H10.5C6.35787 42.6992 3 39.3413 3 35.1992V21.6992Z" fill="url(#paint0_linear_228_1591)"/>
<path fill-rule="evenodd" clip-rule="evenodd" d="M33.7716 40.1079C34.3398 40.7106 34.3398 41.688 33.7716 42.2907C33.2032 42.8934 32.2818 42.8934 31.7136 42.2907L27.4708 37.7907C26.9026 37.188 26.9026 36.2106 27.4708 35.6079L31.7136 31.1079C32.2818 30.505 33.2032 30.505 33.7714 31.1079C34.3398 31.7106 34.3398 32.688 33.7716 33.2907L30.5578 36.6993L33.7716 40.1079ZM37.7136 33.2907C37.1452 32.688 37.1452 31.7107 37.7136 31.1079C38.2818 30.5052 39.2032 30.5052 39.7716 31.1079L44.0142 35.6079C44.5824 36.2107 44.5824 37.188 44.0142 37.7907L39.7716 42.2907C39.2032 42.8935 38.2818 42.8935 37.7136 42.2907C37.1452 41.688 37.1452 40.7106 37.7136 40.1079L40.9272 36.6993L37.7136 33.2907Z" fill="#141513"/>
<path fill-rule="evenodd" clip-rule="evenodd" d="M10.5 6.69922C6.35787 6.69922 3 10.0571 3 14.1992V15.6992H45V14.1992C45 10.0571 41.6421 6.69922 37.5 6.69922H10.5ZM9 12.6992C9.82842 12.6992 10.5 12.0276 10.5 11.1992C10.5 10.3708 9.82842 9.69922 9 9.69922C8.17158 9.69922 7.5 10.3708 7.5 11.1992C7.5 12.0276 8.17158 12.6992 9 12.6992ZM13.5 12.6992C14.3284 12.6992 15 12.0276 15 11.1992C15 10.3708 14.3284 9.69922 13.5 9.69922C12.6716 9.69922 12 10.3708 12 11.1992C12 12.0276 12.6716 12.6992 13.5 12.6992ZM19.5 11.1992C19.5 12.0276 18.8285 12.6992 18 12.6992C17.1715 12.6992 16.5 12.0276 16.5 11.1992C16.5 10.3708 17.1715 9.69922 18 9.69922C18.8285 9.69922 19.5 10.3708 19.5 11.1992Z" fill="url(#paint1_linear_228_1591)"/>
</g>
<defs>
<linearGradient id="paint0_linear_228_1591" x1="33.122" y1="24.1081" x2="24.5311" y2="43.4853" gradientUnits="userSpaceOnUse">
<stop stop-color="#9DE8EE"/>
<stop offset="0.0001" stop-color="#9DE8EE"/>
<stop offset="0.490049" stop-color="#FA7C0B"/>
<stop offset="1" stop-color="#9F8CED"/>
</linearGradient>
<linearGradient id="paint1_linear_228_1591" x1="33.122" y1="8.72755" x2="31.7153" y2="17.1885" gradientUnits="userSpaceOnUse">
<stop stop-color="#9DE8EE"/>
<stop offset="0.0001" stop-color="#9DE8EE"/>
<stop offset="0.490049" stop-color="#FA7C0B"/>
<stop offset="1" stop-color="#9F8CED"/>
</linearGradient>
</defs>
</svg>
