<svg width="48" height="49" viewBox="0 0 48 49" fill="none" xmlns="http://www.w3.org/2000/svg">
<path fill-rule="evenodd" clip-rule="evenodd" d="M19.5 20.1992C19.5 17.7139 21.5146 15.6992 24 15.6992C26.4853 15.6992 28.5 17.7139 28.5 20.1992V21.6992C28.5 24.1846 26.4853 26.1992 24 26.1992C21.5146 26.1992 19.5 24.1846 19.5 21.6992V20.1992ZM18.8158 31.5151C19.3383 30.9928 20.0469 30.6992 20.7856 30.6992H27.2142C27.9531 30.6992 28.6617 30.9928 29.184 31.5151C29.7064 32.0375 30 32.7461 30 33.4849C30 34.3133 30.6715 34.9849 31.5 34.9849C32.3284 34.9849 33 34.3133 33 33.4849C33 31.9505 32.3904 30.4789 31.3053 29.3938C30.2203 28.3088 28.7487 27.6992 27.2142 27.6992H20.7856C19.2513 27.6992 17.7796 28.3088 16.6945 29.3938C15.6096 30.4789 15 31.9505 15 33.4849C15 34.3133 15.6716 34.9849 16.5 34.9849C17.3284 34.9849 18 34.3133 18 33.4849C18 32.7461 18.2935 32.0375 18.8158 31.5151Z" fill="#141513"/>
<path fill-rule="evenodd" clip-rule="evenodd" d="M3 24.6992C3 13.1012 12.402 3.69922 24 3.69922C35.598 3.69922 45 13.1012 45 24.6992C45 36.2972 35.598 45.6992 24 45.6992C12.402 45.6992 3 36.2972 3 24.6992ZM22.5 6.76082V8.19922C22.5 9.02764 23.1716 9.69922 24 9.69922C24.8284 9.69922 25.5 9.02764 25.5 8.19922V6.76082C34.2447 7.48225 41.217 14.4545 41.9384 23.1992H40.5C39.6716 23.1992 39 23.8708 39 24.6992C39 25.5277 39.6716 26.1992 40.5 26.1992H41.9384C41.217 34.9439 34.2447 41.9162 25.5 42.6376V41.1992C25.5 40.3708 24.8284 39.6992 24 39.6992C23.1716 39.6992 22.5 40.3708 22.5 41.1992V42.6376C13.7553 41.9162 6.78303 34.9439 6.0616 26.1992H7.5C8.32842 26.1992 9 25.5277 9 24.6992C9 23.8708 8.32842 23.1992 7.5 23.1992H6.0616C6.78303 14.4545 13.7553 7.48225 22.5 6.76082Z" fill="url(#paint0_linear_228_1620)"/>
<defs>
<linearGradient id="paint0_linear_228_1620" x1="33.122" y1="13.1648" x2="13.4704" y2="38.4933" gradientUnits="userSpaceOnUse">
<stop stop-color="#9DE8EE"/>
<stop offset="0.0001" stop-color="#9DE8EE"/>
<stop offset="0.490049" stop-color="#FA7C0B"/>
<stop offset="1" stop-color="#9F8CED"/>
</linearGradient>
</defs>
</svg>
